<?xml version="1.0" standalone="no"?>
<!DOCTYPE svg PUBLIC "-//W3C//DTD SVG 20010904//EN"
 "http://www.w3.org/TR/2001/REC-SVG-20010904/DTD/svg10.dtd">
<svg version="1.0" xmlns="http://www.w3.org/2000/svg"
 width="40.000000pt" height="40.000000pt" viewBox="0 0 40.000000 40.000000"
 preserveAspectRatio="xMidYMid meet">

<g transform="translate(0.000000,40.000000) scale(0.100000,-0.100000)"
fill="#000000" stroke="none">
<path d="M70 267 c-23 -12 -25 -18 -28 -94 -3 -77 -1 -83 20 -94 30 -16 176
-16 206 -1 12 7 22 22 22 33 0 18 3 17 26 -10 28 -34 61 -40 71 -14 9 24 -14
103 -41 138 -17 22 -37 33 -77 43 -70 16 -167 15 -199 -1z m190 -12 c24 -15
-14 -25 -90 -24 -78 0 -129 12 -100 22 8 3 24 8 35 11 27 7 140 0 155 -9z m74
-140 c28 -42 28 -24 1 30 -26 50 -34 102 -14 89 14 -8 59 -104 59 -125 0 -28
-30 -31 -50 -7 -21 25 -50 102 -49 127 0 9 8 -7 18 -36 10 -28 26 -63 35 -78z
m-134 102 c73 1 74 1 40 -12 -19 -7 -47 -14 -62 -14 -41 -1 -128 19 -128 30 0
6 15 7 38 2 20 -4 71 -7 112 -6z m-60 -34 c30 -3 72 -1 93 5 43 12 51 -3 10
-19 -57 -23 -193 -7 -193 22 0 7 7 8 18 4 9 -4 42 -9 72 -12z m20 -38 c25 0
62 4 83 9 50 11 50 -9 0 -23 -70 -20 -182 -9 -191 18 -3 10 3 11 29 5 19 -5
54 -9 79 -9z m-52 -35 c34 -6 70 -6 108 1 61 11 80 5 50 -17 -38 -27 -216 -14
-216 16 0 12 -4 12 58 0z"/>
</g>
</svg>
